<?xml version="1.0" encoding="UTF-8"?>
<svg version="1.1" xmlns="http://www.w3.org/2000/svg" width="2227" height="2095">
<path d="M0 0 C0.67277481 0.00026688 1.34554962 0.00053375 2.03871155 0.00080872 C98.69638121 0.04859584 194.53122935 8.35190062 487.625 99.1875 C488.66920105 99.66479553 488.66920105 99.66479553 489.73449707 100.1517334 C518.63988346 113.3720264 547.1324271 127.47337007 574.62695312 143.44628906 C577.36072611 145.03401455 580.09999217 146.61190674 582.84057617 148.18783569 C597.89911283 156.85763611 612.62930413 165.88722815 627.10009766 175.51660156 C630.197408 177.56630104 633.31938736 179.5755506 636.44604492 181.58007812 C651.54374606 191.26322709 666.13738352 201.61920953 680.625 212.1875 C681.81561035 213.0527832 681.81561035 213.0527832 683.03027344 213.93554688 C693.23094524 221.35347213 703.24930292 228.93652942 713.03369141 236.89599609 C715.30230346 238.73719858 717.58896471 240.55550253 719.875 242.375 C729.01299153 249.69141496 738.01810406 257.15602256 746.92919922 264.74609375 C748.62734846 266.18949616 750.33090193 267.62631423 752.03515625 269.0625 C759.0126877 274.96573034 765.77804202 281.05042821 772.42993164 287.31860352 C775.5484051 290.25651002 778.68040168 293.15225496 781.9375 295.9375 C785.81714244 299.27012128 789.37108286 302.89969321 792.9375 306.5625 C794.98662431 308.56397026 797.04315146 310.42613414 799.21484375 312.28515625 C804.26035519 316.66077337 808.96104923 321.37336106 813.6706543 326.1027832 C815.1849258 327.62241668 816.7044743 329.13662517 818.22460938 330.65039062 C822.97987561 335.4023556 827.6255786 340.20287105 831.99975586 345.31274414 C834.93683524 348.70073161 838.04194425 351.93281022 841.125 355.1875 C846.08159254 360.42002656 850.91712198 365.72975606 855.625 371.1875 C856.11871094 371.75903809 856.61242188 372.33057617 857.12109375 372.91943359 C860.1201521 376.40019002 863.10378094 379.89419373 866.08740234 383.38818359 C867.07879386 384.5483226 868.07122904 385.70757095 869.06494141 386.86572266 C875.1659647 393.97680663 881.06579976 401.21130568 886.8203125 408.60546875 C888.6882438 411.00214618 890.57837486 413.37808509 892.4921875 415.73828125 C900.53115732 425.65417343 908.12007281 435.86318291 915.625 446.1875 C916.69659673 447.65496095 917.76821084 449.12240921 918.83984375 450.58984375 C932.10405141 468.80353557 944.92301448 487.26576098 956.86425781 506.37646484 C958.66674942 509.25415319 960.48437413 512.12183829 962.3046875 514.98828125 C980.58423803 543.86539762 997.04508263 573.78018363 1012.625 604.1875 C1013.2118457 605.33250977 1013.79869141 606.47751953 1014.40332031 607.65722656 C1023.73474072 625.90914016 1032.50693584 644.35891676 1040.625 663.1875 C1040.91783875 663.86556702 1041.21067749 664.54363403 1041.51239014 665.24224854 C1051.40510902 688.18222347 1060.42908089 711.38506679 1068.81439209 734.91644287 C1069.59709108 737.10930838 1070.38499562 739.30023328 1071.17431641 741.49072266 C1102.28432133 828.02980741 1121.25718718 919.2072814 1132.43359375 1038.6451416 C1132.61307198 1041.02906582 1132.7984621 1043.41246929 1132.984375 1045.79589844 C1136.82505537 1096.20242946 1136.18946348 1147.8716885 1131.625 1198.1875 C1131.54014343 1199.14350098 1131.45528687 1200.09950195 1131.36785889 1201.08447266 C1127.32667819 1246.50482912 1120.82589471 1291.52595782 1111.625 1336.1875 C1111.45139954 1337.03274231 1111.27779907 1337.87798462 1111.09893799 1338.74884033 C1092.73147301 1427.92433683 1064.00037599 1514.66594212 1016.29980469 1614.79101562 C1014.63150887 1618.17430009 1012.97579701 1621.56355732 1011.3203125 1624.953125 C1004.75211121 1638.3241062 997.73025005 1651.34966491 990.29736328 1664.25732422 C988.55765944 1667.30548852 986.85083072 1670.37009811 985.15234375 1673.44140625 C977.68441695 1686.94418883 969.88618151 1700.15623476 961.625 1713.1875 C961.00898926 1714.16686523 960.39297852 1715.14623047 959.75830078 1716.15527344 C950.12651399 1731.46635117 940.08194418 1746.42876083 929.625 1761.1875 C928.71349852 1762.48043833 927.8020351 1763.7734035 926.890625 1765.06640625 C916.52087732 1779.72422396 905.8738636 1794.19114688 894.625 1808.1875 C894.1108252 1808.8278418 893.59665039 1809.46818359 893.06689453 1810.12792969 C889.2791807 1814.83611829 885.4621271 1819.51951791 881.625 1824.1875 C881.16125977 1824.7532373 880.69751953 1825.31897461 880.21972656 1825.90185547 C869.91709926 1838.42831503 858.80188775 1850.24591706 847.1875 1861.5625 C845.27439029 1863.52227092 843.51333836 1865.4763613 841.74609375 1867.55859375 C836.38345936 1873.74223195 830.5126069 1879.44849412 824.71899414 1885.22387695 C822.6923702 1887.24514268 820.67114453 1889.27169574 818.65039062 1891.29882812 C813.01044542 1896.94138003 807.40171392 1902.55192046 801.31420898 1907.71655273 C798.25862763 1910.37732418 795.45592649 1913.29194049 792.625 1916.1875 C788.45144415 1920.45634251 784.17992974 1924.50478849 779.66015625 1928.40625 C776.2297841 1931.40864865 772.93415677 1934.55284954 769.625 1937.6875 C764.9709372 1942.09613371 760.26582385 1946.41760841 755.42431641 1950.62011719 C753.18912587 1952.56718954 751.00029997 1954.56244469 748.8125 1956.5625 C745.43559018 1959.61608867 741.99282868 1962.53179205 738.4375 1965.375 C733.66311878 1969.24095103 729.12380962 1973.31716209 724.625 1977.5 C723.65397339 1978.39851685 723.65397339 1978.39851685 722.66333008 1979.31518555 C718.19066429 1983.50937907 714.86762305 1987.23928044 712.4375 1992.9375 C711.92123047 1994.13632813 711.92123047 1994.13632813 711.39453125 1995.359375 C711.01361328 1996.26429688 711.01361328 1996.26429688 710.625 1997.1875 C709.965 1996.8575 709.305 1996.5275 708.625 1996.1875 C708.06222037 1993.86390815 707.62754615 1991.6095791 707.25 1989.25390625 C706.99042116 1987.74429658 706.73030302 1986.23477958 706.46972656 1984.7253418 C706.33312622 1983.91737152 706.19652588 1983.10940125 706.05578613 1982.27694702 C698.71293703 1939.20455159 687.28039566 1896.72963742 674.625 1854.9375 C674.39330109 1854.16666077 674.16160217 1853.39582153 673.92288208 1852.60162354 C673.26904905 1850.43500666 672.6052899 1848.2717255 671.9375 1846.109375 C671.56238281 1844.88831055 671.18726563 1843.66724609 670.80078125 1842.40917969 C669.6950001 1839.37930261 668.38874084 1836.87758599 666.625 1834.1875 C659.17761607 1834.1875 654.77965688 1838.10809359 649.625 1843.1875 C646.68574468 1846.57478077 643.99154051 1850.14892705 641.28515625 1853.72265625 C635.11607239 1861.85250838 627.9062368 1869.06118313 620.625 1876.1875 C618.75 1875.625 618.75 1875.625 616.625 1874.1875 C613.94084044 1867.58770191 614.36841417 1860.84549191 614.42245483 1853.81764221 C614.42571588 1852.45041849 614.42808805 1851.08319241 614.4296509 1849.71596569 C614.43649454 1845.96919025 614.455911 1842.22257013 614.47741175 1838.47585404 C614.49840609 1834.43165348 614.50769616 1830.38742391 614.51841736 1826.34318542 C614.538581 1819.33966605 614.56613812 1812.33620718 614.59873581 1805.33273506 C614.64585569 1795.20693055 614.68179586 1785.08111056 614.71501906 1774.95525204 C614.76922629 1758.52620459 614.83245832 1742.09720478 614.90136719 1725.66821289 C614.96828119 1709.71022047 615.03094398 1693.75222069 615.08789062 1677.79418945 C615.09140307 1676.81031998 615.09491551 1675.8264505 615.09853439 1674.8127668 C615.11612929 1669.87691797 615.13364063 1664.94106885 615.15111041 1660.00521958 C615.29611772 1619.06592634 615.45577203 1578.12669983 615.625 1537.1875 C614.89552155 1537.19638245 614.16604309 1537.20526489 613.41445923 1537.2144165 C606.50107781 1537.2949477 599.58776755 1537.35565873 592.67403603 1537.39474869 C589.12053861 1537.41552189 585.56743246 1537.44364773 582.01416016 1537.48925781 C577.91825857 1537.54149721 573.82276058 1537.56052984 569.7265625 1537.578125 C568.4657486 1537.59877014 567.20493469 1537.61941528 565.90591431 1537.64068604 C557.69750128 1537.64275182 550.03382452 1536.97830315 543.58096313 1531.42999268 C537.14573087 1524.85696372 531.5482221 1514.73375284 531.375 1505.4375 C531.34921875 1504.61765625 531.3234375 1503.7978125 531.296875 1502.953125 C532.06255308 1496.49955264 535.47663163 1491.6497385 539.5 1486.75 C539.97904785 1486.15437256 540.4580957 1485.55874512 540.95166016 1484.94506836 C541.97593117 1483.67404264 543.00385945 1482.40595674 544.03515625 1481.140625 C545.62713172 1479.18488118 547.20544316 1477.21878583 548.78125 1475.25 C555.73208525 1466.59482249 562.90749497 1458.159927 570.22265625 1449.81152344 C571.57027166 1448.25087968 572.88168232 1446.66597289 574.1875 1445.0703125 C576.54430499 1442.28293737 579.04131319 1439.7633693 581.625 1437.1875 C583.76838779 1434.82532716 585.85510547 1432.4159701 587.9375 1430 C588.51435547 1429.33291016 589.09121094 1428.66582031 589.68554688 1427.97851562 C593.38760846 1423.67814106 596.96321215 1419.29898942 600.47265625 1414.83984375 C603.80463943 1410.73382455 607.29878925 1406.77116475 610.77514648 1402.78735352 C614.70525825 1398.27441272 618.52181859 1393.68461351 622.28515625 1389.03125 C625.69525027 1384.88676177 629.20674506 1380.83059896 632.72875977 1376.78100586 C635.46489035 1373.68504301 635.46489035 1373.68504301 637.625 1370.1875 C638.285 1370.1875 638.945 1370.1875 639.625 1370.1875 C639.87507813 1369.62804688 640.12515625 1369.06859375 640.3828125 1368.4921875 C645.27584148 1359.41392618 653.04774646 1353.60167164 662.625 1350.1875 C670.87838993 1348.035505 677.89202152 1349.58749857 685.27734375 1353.64453125 C693.1858364 1358.85256299 698.52764371 1365.78000865 704.15625 1373.24267578 C706.4443397 1376.2724169 708.7825444 1379.26220844 711.125 1382.25 C711.57085449 1382.82097412 712.01670898 1383.39194824 712.47607422 1383.98022461 C716.27835866 1388.81943366 720.25636485 1393.49336014 724.28295898 1398.14648438 C728.05263119 1402.50369366 731.71554191 1406.93733551 735.34765625 1411.41015625 C737.90704353 1414.53146733 740.51107999 1417.61187604 743.125 1420.6875 C748.02956739 1426.46393421 752.84644265 1432.30619865 757.625 1438.1875 C758.64564434 1439.43765432 759.66649067 1440.68764375 760.6875 1441.9375 C766.44156321 1448.98987195 772.14658094 1456.07435976 777.74169922 1463.25366211 C780.47102063 1466.74833031 783.27147522 1470.16761503 786.125 1473.5625 C791.30105257 1479.83706732 795.80187905 1486.55523529 800.33007812 1493.30273438 C801.64071664 1495.21037565 803.0112401 1497.0635645 804.390625 1498.921875 C807.64664781 1503.68067756 808.10542558 1507.422393 807.625 1513.1875 C803.64768265 1525.60078344 793.71042607 1531.21842443 782.625 1537.1875 C763.815 1537.1875 745.005 1537.1875 725.625 1537.1875 C725.625 1576.4575 725.625 1615.7275 725.625 1656.1875 C728.925 1651.5675 732.225 1646.9475 735.625 1642.1875 C737.78487855 1639.77720075 739.94514561 1637.36677354 742.1484375 1634.99609375 C769.04957351 1604.48833856 790.28851604 1567.56445775 806.88598633 1530.63989258 C809.03681149 1526.01553311 811.55591976 1522.6932082 815.1328125 1519.11791992 C816.85846013 1516.88547623 817.0780158 1515.60657613 817.40234375 1512.83203125 C818.53604248 1506.42267593 821.39622574 1500.98329092 824.32901001 1495.24401855 C862.41520491 1420.44489212 886.17139508 1336.54269556 908.43359375 1179.44000244 C908.55667545 1177.99155528 908.68152936 1176.54325703 908.80859375 1175.09515381 C912.51931652 1132.79420267 912.07192763 1089.50059931 908.625 1047.1875 C908.56183594 1046.4012323 908.49867187 1045.6149646 908.43359375 1044.80487061 C901.33112694 957.18384397 882.68293566 870.67237489 789.19287109 660.83544922 C787.80654488 658.49410787 786.43851973 656.14386317 785.08203125 653.78515625 C774.61781718 635.63184028 763.23222829 617.99761101 750.94824219 601.02392578 C749.69449113 599.28394138 748.45734038 597.53362804 747.2265625 595.77734375 C739.66710276 585.01741405 731.65176764 574.60105428 723.625 564.1875 C723.09165039 563.49527344 722.55830078 562.80304687 722.00878906 562.08984375 C715.8883294 554.16781357 709.56647808 546.44502542 703.04736328 538.84814453 C701.57683 537.13126033 700.11403077 535.40801318 698.65234375 533.68359375 C692.99797974 527.02806932 687.23843343 520.49869814 681.29296875 514.1015625 C679.3160959 511.94234267 677.39610757 509.76375616 675.48925781 507.54467773 C671.54606065 503.03325001 667.37021184 498.78842316 663.12890625 494.55859375 C662.33653061 493.76526138 661.54415497 492.97192902 660.72776794 492.15455627 C659.06249717 490.48860919 657.39597971 488.82390744 655.72827148 487.16040039 C653.19465378 484.63213866 650.66641833 482.09858339 648.13867188 479.56445312 C646.51073717 477.9371793 644.88249225 476.31021575 643.25390625 474.68359375 C642.134786 473.56143715 642.134786 473.56143715 640.99305725 472.41661072 C636.9159663 468.35742973 632.75363533 464.46006673 628.38787842 460.71226501 C625.62457435 458.32220265 622.97680045 455.81156926 620.3125 453.3125 C615.5185086 448.85245644 610.59989004 444.62440447 605.4921875 440.5234375 C602.20920967 437.84874984 599.01246861 435.08530652 595.8125 432.3125 C589.5397113 426.90118452 583.0987388 421.74758215 576.546875 416.6796875 C574.48236141 415.07675215 572.42817524 413.46117942 570.375 411.84375 C529.50764702 379.72056813 485.44878423 351.67566787 439.625 327.1875 C439.00602844 326.85621094 438.38705688 326.52492188 437.74932861 326.18359375 C395.32273206 303.50700157 351.09272968 284.84755132 305.625 269.1875 C304.92135315 268.94493469 304.2177063 268.70236938 303.49273682 268.45245361 C234.55214574 244.76283043 162.54950293 230.39441554 90 223.9375 C89.0667691 223.85432526 88.13353821 223.77115051 87.17202759 223.68545532 C68.59863162 222.0505724 50.08595482 220.97628063 31.4375 221 C30.20333847 221.00040787 30.20333847 221.00040787 28.94424438 221.00082397 C-54.05672865 221.12449486 -136.85489307 233.50035434 -416.375 337.1875 C-417.40383301 337.76371094 -418.43266602 338.33992188 -419.49267578 338.93359375 C-433.3700252 346.73763605 -446.88090971 354.94221341 -460.1484375 363.7421875 C-464.75287305 366.79558461 -469.41903623 369.73142223 -474.125 372.625 C-479.45348211 375.9180392 -484.57906231 379.38359291 -489.60546875 383.12890625 C-492.80793363 385.50929975 -496.05791684 387.81674745 -499.3125 390.125 C-505.74706098 394.70751812 -512.08591329 399.40680499 -518.375 404.1875 C-519.89673828 405.33992187 -519.89673828 405.33992187 -521.44921875 406.515625 C-534.19344716 416.23447077 -546.57824559 426.39707034 -558.75976562 436.81054688 C-560.42334543 438.22871346 -562.09395876 439.63825317 -563.765625 441.046875 C-571.30188807 447.42028514 -578.5830116 454.02004669 -585.76171875 460.79296875 C-588.88546099 463.73966341 -592.06377479 466.62088084 -595.25 469.5 C-602.11456651 475.77374068 -608.66845507 482.37031593 -615.25 488.9375 C-616.06957184 489.75318954 -616.06957184 489.75318954 -616.90570068 490.58535767 C-622.37977898 496.03897884 -627.79093466 501.50262091 -632.81396484 507.38134766 C-635.5232963 510.51610432 -638.40026328 513.49343375 -641.25 516.5 C-646.16540063 521.72216634 -650.82020096 527.03649232 -655.296875 532.640625 C-657.43218453 535.2575833 -659.66030363 537.75592779 -661.9375 540.25 C-666.3117995 545.06248495 -670.36476126 550.07023009 -674.375 555.1875 C-675.17292969 556.19039062 -675.97085937 557.19328125 -676.79296875 558.2265625 C-730.9195958 626.37130339 -775.60683251 702.48537361 -863.625 1016.6875 C-863.70213226 1017.43994995 -863.77926453 1018.1923999 -863.85873413 1018.96765137 C-864.43771477 1024.70209136 -864.92463812 1030.44161753 -865.375 1036.1875 C-865.46220306 1037.28194427 -865.54940613 1038.37638855 -865.63925171 1039.5039978 C-867.36126068 1061.77270048 -867.73963951 1083.96449885 -867.69305801 1106.2925415 C-867.6874102 1109.04374246 -867.68459447 1111.79493723 -867.68197632 1114.54614258 C-867.64624772 1140.37879419 -867.34785442 1166.08543797 -864.625 1191.79858398 C-864.36265314 1194.30548246 -864.11559259 1196.81356649 -863.87109375 1199.32226562 C-855.73525535 1282.01315748 -836.19073916 1363.67283066 -755.99121094 1543.36083984 C-754.36664008 1546.20212102 -752.77630496 1549.06004999 -751.1953125 1551.92578125 C-744.13454245 1564.69102135 -736.5338789 1576.9710046 -728.43310547 1589.10107422 C-726.62302367 1591.81555276 -724.82310246 1594.5362758 -723.02787781 1597.26057434 C-710.43046822 1616.37459502 -697.33410524 1634.94758141 -683.13500977 1652.91259766 C-680.50868684 1656.30725392 -677.95019995 1659.75390006 -675.375 1663.1875 C-675.045 1621.6075 -674.715 1580.0275 -674.375 1537.1875 C-695.165 1537.1875 -715.955 1537.1875 -737.375 1537.1875 C-747.29196986 1532.77995784 -752.36167466 1529.60831075 -757.375 1520.1875 C-760.05973496 1512.68042121 -760.52984486 1504.35577081 -757.8125 1496.8046875 C-754.71483866 1491.16492365 -750.07686542 1486.54776254 -745.79199219 1481.79003906 C-744.01685284 1479.78245555 -742.37123989 1477.69571038 -740.75 1475.5625 C-738.06941011 1472.04707919 -735.27809801 1468.63653877 -732.4375 1465.25 C-727.35000537 1459.18178352 -722.39883665 1453.01268466 -717.48828125 1446.80078125 C-713.25899231 1441.47342134 -708.91942253 1436.25504891 -704.51245117 1431.07495117 C-701.5953314 1427.64236451 -698.7182836 1424.1818396 -695.875 1420.6875 C-692.56875585 1416.624191 -689.20670135 1412.61462432 -685.8125 1408.625 C-682.01402074 1404.15589537 -678.30166199 1399.63377233 -674.66015625 1395.03515625 C-671.04669102 1390.53222265 -667.34662937 1386.10070788 -663.66015625 1381.6574707 C-660.44113711 1377.75933178 -657.3083227 1373.82245536 -654.28808594 1369.76855469 C-646.69622629 1359.58759868 -638.26353155 1351.18747748 -625.5 1348.4453125 C-616.0433904 1347.29800325 -608.35739905 1350.45070071 -600.875 1356.0625 C-593.96283945 1361.93783647 -588.69457206 1368.91698465 -583.375 1376.1875 C-574.52044474 1388.06556193 -565.72413702 1399.86500573 -555.64453125 1410.73828125 C-553.66119538 1412.87864544 -551.72539811 1415.04686908 -549.8125 1417.25 C-544.37778695 1423.48655596 -538.96351209 1429.69761962 -533 1435.4375 C-528.78696559 1439.59202004 -525.19982283 1444.07830569 -521.59985352 1448.75732422 C-518.48893069 1452.79629319 -515.26908466 1456.70430809 -511.9375 1460.5625 C-503.39146464 1470.52287113 -495.38203262 1481.08480746 -488.375 1492.1875 C-487.776875 1493.115625 -487.17875 1494.04375 -486.5625 1495 C-482.83269349 1501.87069621 -483.3504672 1511.57910192 -485.375 1518.9375 C-488.45504746 1526.82648949 -494.81139192 1532.69660396 -502.375 1536.1875 C-505.67317126 1537.23793897 -508.70158337 1537.30852917 -512.15332031 1537.30102539 C-513.3142218 1537.30094986 -514.47512329 1537.30087433 -515.67120361 1537.30079651 C-517.5432547 1537.29305458 -517.5432547 1537.29305458 -519.453125 1537.28515625 C-520.73483582 1537.2837413 -522.01654663 1537.28232635 -523.33709717 1537.28086853 C-526.7368364 1537.27705901 -530.1365326 1537.26724214 -533.53625488 1537.25616455 C-537.008539 1537.24591674 -540.4808301 1537.2413637 -543.953125 1537.23632812 C-550.76043429 1537.22561841 -557.56771508 1537.20856084 -564.375 1537.1875 C-564.37424056 1537.85522462 -564.37348112 1538.52294924 -564.37269866 1539.21090794 C-564.32794418 1578.78418533 -564.29362771 1618.35745947 -564.27286934 1657.93075705 C-564.27036792 1662.68219094 -564.26777928 1667.43362478 -564.26513672 1672.18505859 C-564.26434979 1673.60394819 -564.26434979 1673.60394819 -564.26354696 1675.05150223 C-564.25484395 1690.36854011 -564.23907454 1705.68556299 -564.22069441 1721.00259197 C-564.20199249 1736.71884213 -564.19088265 1752.43508442 -564.18682301 1768.15134525 C-564.18407856 1777.84938967 -564.17540982 1787.54739166 -564.15916707 1797.24542302 C-564.14859659 1803.89539099 -564.14539952 1810.54533703 -564.14799725 1817.1953128 C-564.14927843 1821.03218784 -564.14731194 1824.86898873 -564.13658905 1828.7058506 C-564.12504328 1832.8675882 -564.1290259 1837.02916799 -564.13449097 1841.19091797 C-564.12575244 1843.00610979 -564.12575244 1843.00610979 -564.11683738 1844.85797215 C-564.14807295 1853.64454554 -564.58570181 1861.1116911 -570.375 1868.1875 C-572.31093626 1869.71537126 -574.24283841 1870.92758633 -576.375 1872.1875 C-579.97221356 1870.6920292 -582.00597221 1868.66043692 -584.5625 1865.75 C-585.35269531 1864.85152344 -586.14289063 1863.95304687 -586.95703125 1863.02734375 C-589.26238541 1860.31976301 -591.51444568 1857.57784457 -593.75 1854.8125 C-604.36909811 1840.53155199 -604.36909811 1840.53155199 -619.375 1832.1875 C-621.99576657 1833.09372813 -623.12466491 1833.76276398 -624.54573059 1836.17384338 C-626.92036903 1842.52092265 -628.65205368 1848.84232206 -630.07421875 1855.46484375 C-630.42861778 1857.06718117 -630.42861778 1857.06718117 -630.79017639 1858.70188904 C-631.5557709 1862.17452501 -632.30904148 1865.64971282 -633.0625 1869.125 C-633.59536178 1871.54718456 -634.12889792 1873.96922086 -634.66308594 1876.39111328 C-637.15500291 1887.73172263 -639.58381808 1899.08270641 -641.87890625 1910.46484375 C-653.94209002 1970.23485378 -653.94209002 1970.23485378 -673.375 1993.1875 C-673.705 1993.1875 -674.035 1993.1875 -674.375 1993.1875 C-674.375 1989.2275 -674.375 1985.2675 -674.375 1981.1875 C-675.695 1980.5275 -677.015 1979.8675 -678.375 1979.1875 C-680.60463917 1977.36686471 -682.77848209 1975.52546522 -684.9375 1973.625 C-686.19310225 1972.53280925 -687.44962253 1971.44167303 -688.70703125 1970.3515625 C-689.32787598 1969.81305664 -689.9487207 1969.27455078 -690.58837891 1968.71972656 C-693.06205053 1966.59827766 -695.58964102 1964.54709442 -698.125 1962.5 C-702.55833669 1958.89994833 -706.82013346 1955.14846513 -711.04296875 1951.3046875 C-713.13323889 1949.40698831 -715.24486115 1947.54016585 -717.375 1945.6875 C-722.09095616 1941.57518623 -726.73884916 1937.38942922 -731.375 1933.1875 C-732.11121582 1932.52113525 -732.11121582 1932.52113525 -732.86230469 1931.84130859 C-738.50217578 1926.73028746 -744.05681596 1921.57127748 -749.39135742 1916.13867188 C-751.23810542 1914.32215372 -753.13590109 1912.6304334 -755.10546875 1910.94921875 C-759.39506693 1907.21995119 -763.43119122 1903.27962386 -767.4375 1899.25 C-768.44006836 1898.25323242 -768.44006836 1898.25323242 -769.46289062 1897.23632812 C-773.41404409 1893.27749506 -777.16053931 1889.20062979 -780.81420898 1884.96655273 C-782.74029956 1882.77111679 -784.77923834 1880.72070161 -786.875 1878.6875 C-790.17763851 1875.42365087 -793.27550648 1872.0733581 -796.296875 1868.55078125 C-799.09345612 1865.37045873 -801.98492784 1862.28275548 -804.875 1859.1875 C-809.46605551 1854.2612839 -813.99438175 1849.30281313 -818.375 1844.1875 C-819.29798655 1843.11832507 -820.22118382 1842.04933204 -821.14453125 1840.98046875 C-826.48262002 1834.78978634 -831.76140722 1828.56075095 -836.91015625 1822.2109375 C-838.80082705 1819.89179456 -840.70456291 1817.58668706 -842.62109375 1815.2890625 C-849.37236168 1807.18097725 -855.90098158 1798.96609483 -862.17578125 1790.484375 C-864.51642349 1787.32387617 -866.8948112 1784.1952076 -869.29296875 1781.078125 C-869.97955566 1780.18448242 -870.66614258 1779.29083984 -871.37353516 1778.37011719 C-872.68919431 1776.66010267 -874.0075932 1774.95219011 -875.32958984 1773.24707031 C-886.00087017 1759.34715655 -895.53184631 1744.57201001 -905.25 1730 C-906.1072316 1728.71465866 -906.1072316 1728.71465866 -906.98178101 1727.40335083 C-915.36961054 1714.81376086 -923.61815821 1702.17839261 -931.375 1689.1875 C-931.8817627 1688.34687012 -932.38852539 1687.50624023 -932.91064453 1686.64013672 C-977.04422776 1613.39975879 -1011.64878967 1535.59972409 -1053.75714111 1401.52099609 C-1054.16913247 1399.96500938 -1054.58234123 1398.4093445 -1054.99676514 1396.85400391 C-1072.40524984 1331.4917097 -1083.11343198 1264.6881616 -1088.625 1197.3125 C-1088.74976212 1195.78829941 -1088.74976212 1195.78829941 -1088.87704468 1194.23330688 C-1092.36668284 1151.09766024 -1093.70787466 1107.41740774 -1091.375 1064.1875 C-1091.31119141 1062.97232697 -1091.31119141 1062.97232697 -1091.24609375 1061.73260498 C-1087.23466003 985.89680873 -1076.08098265 910.79897184 -1057.375 837.1875 C-1057.1747522 836.39724426 -1056.97450439 835.60698853 -1056.76818848 834.79278564 C-1050.28604606 809.27818047 -1042.5896409 784.19336398 -1034.375 759.1875 C-1033.94315924 757.86589763 -1033.51135344 756.54428383 -1033.07958984 755.22265625 C-1022.34237602 722.55832012 -1009.47923407 690.53671404 -995.375 659.1875 C-994.89095703 658.1051709 -994.40691406 657.0228418 -993.90820312 655.90771484 C-980.27981107 625.56396275 -965.68025191 595.28937539 -948.79443359 566.61621094 C-947.33266682 564.11506613 -945.90632179 561.59648118 -944.48828125 559.0703125 C-932.56721112 537.85440799 -919.61599069 517.36799224 -906.125 497.125 C-905.58164001 496.30896301 -905.03828003 495.49292603 -904.47845459 494.65216064 C-894.73939587 480.04559609 -884.75092399 465.61729089 -874.3125 451.5 C-873.72944092 450.71020752 -873.14638184 449.92041504 -872.5456543 449.10668945 C-867.71307159 442.58867506 -862.7436942 436.18990034 -857.68847656 429.84375 C-856.36396087 428.17358003 -855.05134284 426.4947307 -853.7421875 424.8125 C-840.54471171 407.86607093 -826.81459627 391.31391557 -812.37890625 375.40625 C-810.56188018 373.39441607 -808.77555608 371.36089566 -807 369.3125 C-802.74814769 364.43795079 -798.36841579 359.68187042 -793.98139954 354.92933655 C-792.95145639 353.81255795 -791.9226177 352.69475916 -790.89518738 351.57566833 C-781.35917411 341.19530982 -771.50202484 331.15886071 -761.52294922 321.20507812 C-758.97896672 318.6665115 -756.44044872 316.1225667 -753.90234375 313.578125 C-752.2607376 311.93717888 -750.61882169 310.29654256 -748.9765625 308.65625 C-748.23056793 307.9082312 -747.48457336 307.1602124 -746.7159729 306.38952637 C-742.63445353 302.32600093 -738.45934857 298.43682299 -734.09716797 294.67608643 C-732.17438484 293.01409473 -730.31640161 291.29632388 -728.48046875 289.5390625 C-727.84069092 288.9308667 -727.20091309 288.3226709 -726.54174805 287.69604492 C-725.56202026 286.76369019 -725.56202026 286.76369019 -724.5625 285.8125 C-719.185985 280.73014462 -713.7362441 275.90355846 -707.94921875 271.29296875 C-705.16469652 269.01549154 -702.52086197 266.62437992 -699.875 264.1875 C-694.5453211 259.2938174 -689.00803512 254.72542156 -683.375 250.1875 C-682.10993201 249.15455767 -680.8456572 248.12064342 -679.58203125 247.0859375 C-671.91627586 240.81530507 -664.19195445 234.65029057 -656.30419922 228.66015625 C-654.0504232 226.93973396 -651.80862296 225.20420915 -649.56640625 223.46875 C-639.53883454 215.73330152 -629.38801395 208.30068701 -618.8671875 201.25 C-615.57649211 199.03607314 -612.36919239 196.73085952 -609.17578125 194.37890625 C-602.82523827 189.73498907 -596.27710641 185.41747406 -589.6875 181.125 C-589.05838715 180.71431274 -588.42927429 180.30362549 -587.78109741 179.88049316 C-539.47033941 148.35659723 -489.02793268 119.8302177 -436.375 96.1875 C-435.13554737 95.62832625 -433.89612725 95.06908045 -432.65673828 94.50976562 C-359.42482025 61.53056353 -282.65910056 36.70923948 -53.375 1.1875 C-52.57284058 1.14619965 -51.77068115 1.10489929 -50.94421387 1.06234741 C-33.96120331 0.20331541 -17.00295211 -0.0141582 0 0 Z " fill="#265782" transform="translate(1092.375,-0.1875)"/>
<path d="M0 0 C0.94746094 0.31195312 1.89492188 0.62390625 2.87109375 0.9453125 C13.02075563 4.62205455 17.11825381 9.75564215 21.8815918 19.25805664 C24.52772792 24.4218511 27.68398612 28.43054201 31.72265625 32.62109375 C34.08468742 35.08846422 36.22992383 37.6550527 38.375 40.3125 C41.71814567 44.44329779 45.11751331 48.51691875 48.5625 52.5625 C52.43567401 57.11624032 56.20623389 61.73495929 59.91796875 66.421875 C62.33084092 69.40967168 64.81796079 72.33056197 67.3125 75.25 C71.11744166 79.7063918 74.78798412 84.24171687 78.375 88.875 C82.84984563 94.64753471 87.55823743 100.17759172 92.37011719 105.67089844 C96.02581559 109.85102459 99.54073983 114.11292274 102.9765625 118.4765625 C105.42801178 121.53377531 107.95896224 124.51719269 110.5 127.5 C113.726434 131.28889032 116.90927392 135.09859167 120 139 C123.52718329 143.45045417 127.17777867 147.78382176 130.85888672 152.10668945 C133.82725793 155.59753099 136.74206129 159.1253349 139.625 162.6875 C142.44769628 166.16081776 145.34747812 169.51658079 148.375 172.8125 C152.51335106 177.34876943 156.2971185 182.10236628 160.04101562 186.96362305 C162.52202846 190.17323601 165.06478105 193.19259762 167.875 196.125 C175.2105368 204.27167789 177.39163047 215.08949708 177.2734375 225.69140625 C176.87615089 230.49857421 175.42349953 233.88219548 173 238 C172.49082031 238.9075 171.98164062 239.815 171.45703125 240.75 C165.45112379 250.86521257 158.5528889 256.87721815 147.35627747 260.537323 C143.98522696 261.19926013 140.64255419 261.13885469 137.22143555 261.12939453 C136.44205627 261.13114685 135.662677 261.13289917 134.85968018 261.13470459 C132.28533698 261.1391025 129.71106263 261.13619149 127.13671875 261.1328125 C125.34316495 261.13348634 123.54961123 261.13445703 121.75605774 261.13571167 C117.99597301 261.13718602 114.23591204 261.13504325 110.47583008 261.13037109 C105.66751294 261.1246863 100.85925177 261.12794654 96.0509367 261.13394356 C92.34566328 261.13756677 88.640403 261.13640228 84.93512917 261.13381577 C83.16299241 261.13315073 81.39085444 261.13396008 79.6187191 261.13629532 C77.1346969 261.13884938 74.65076367 261.13494206 72.16674805 261.12939453 C71.44078934 261.13141876 70.71483063 261.13344299 69.96687317 261.13552856 C65.55579156 261.1173805 61.35595776 260.66142917 57 260 C55.68 260 54.36 260 53 260 C53.48764832 260.7338945 53.97529663 261.467789 54.47772217 262.22392273 C56.9852502 267.2952006 56.3996541 272.89102066 56.35644531 278.41723633 C56.35846136 279.67578147 56.36047741 280.93432661 56.36255455 282.23100948 C56.36763432 285.70161844 56.35397494 289.17193339 56.33698702 292.64249516 C56.32198813 296.34826553 56.32401305 300.05403138 56.32382202 303.75982666 C56.32060051 310.94558148 56.30089032 318.13119966 56.27510417 325.31690538 C56.25444802 331.16169535 56.24019005 337.00647028 56.23016357 342.85128784 C56.19016326 365.90104436 56.11318218 388.95048588 56 412 C55.99664328 412.6843449 55.99328655 413.3686898 55.98982811 414.07377243 C55.82003921 448.38457573 55.47452972 482.69212269 55 517 C54.98331017 518.21417099 54.96662033 519.42834198 54.94942474 520.67930603 C54.69293576 539.29783812 54.41636929 557.91598786 54.12346649 576.53397751 C54.06412148 580.33368077 54.00628657 584.13340433 53.9487915 587.93313599 C53.53649343 614.9287049 52.95011939 641.91132199 52.0234375 668.89453125 C51.96358768 670.65645719 51.96358768 670.65645719 51.90252876 672.45397758 C49.37869711 745.83304444 49.37869711 745.83304444 45 759 C44.34 759.33 43.68 759.66 43 760 C42.34515625 759.15179687 41.6903125 758.30359375 41.015625 757.4296875 C32.12190684 745.97370794 22.78866055 734.94813458 13.0078125 724.23828125 C11.72166706 722.80450433 10.46320027 721.34510433 9.2421875 719.85546875 C3.86721859 713.31800657 -3.40077752 706.52875066 -12 705 C-15.66364808 704.9872962 -15.66364808 704.9872962 -19 706 C-25.71424968 713.27752231 -24.42900199 726.31117631 -25.03759766 735.67041016 C-26.56653056 758.86561866 -29.5292634 781.68113069 -33.125 804.625 C-34.10170946 810.86005099 -35.07675819 817.09534323 -36.04296875 823.33203125 C-36.22667337 824.51751021 -36.22667337 824.51751021 -36.4140892 825.72693825 C-39.97574064 848.80585995 -42.79807635 871.9816529 -45.65087891 895.15673828 C-48.83435536 921.01639129 -52.34458938 946.75877721 -56.89031982 972.42019653 C-60.36361763 992.10192766 -63.46189771 1011.80529362 -66.1796875 1031.60546875 C-66.31297203 1032.57449379 -66.44625656 1033.54351883 -66.58358002 1034.54190826 C-67.91895291 1044.2626764 -69.23645697 1053.98558521 -70.51617241 1063.71384335 C-70.99965121 1067.37254551 -71.49304339 1071.02987128 -71.98822403 1074.687006 C-72.21676929 1076.39471933 -72.44055373 1078.1030778 -72.65914536 1079.81209373 C-75.62183658 1102.96614737 -75.62183658 1102.96614737 -84.21875 1110.0390625 C-86 1111 -86 1111 -90 1111 C-93.18575564 1103.1907748 -93.42241352 1096.28153171 -93.37752342 1087.90564632 C-93.38065629 1086.47695296 -93.38510261 1085.04826199 -93.39073652 1083.61957631 C-93.4024076 1079.69459429 -93.39543478 1075.76983397 -93.38540266 1071.84485561 C-93.37778983 1067.57441318 -93.38757338 1063.30400464 -93.39513266 1059.03356701 C-93.40596966 1051.54939022 -93.40563785 1044.06527834 -93.39799118 1036.58109856 C-93.3866513 1025.45198561 -93.392441 1014.3229275 -93.4016161 1003.19381493 C-93.41742166 983.3184002 -93.41604087 963.44301438 -93.40737936 943.5675969 C-93.39983694 926.17506193 -93.39786061 908.78253756 -93.4014473 891.3900013 C-93.40167645 890.23695408 -93.40190561 889.08390687 -93.40214171 887.89591883 C-93.4030757 883.21550348 -93.4040309 878.53508813 -93.405021 873.85467279 C-93.41420073 829.93712197 -93.40587317 786.01958958 -93.38973031 742.10204161 C-93.37549224 703.06972685 -93.37676785 664.03744145 -93.39111328 625.00512695 C-93.40717102 581.16712225 -93.41355069 537.32913383 -93.40427649 493.4911266 C-93.40331431 488.81947871 -93.4023758 484.14783083 -93.4014473 479.47618294 C-93.40121006 478.32587647 -93.40097283 477.17557001 -93.40072841 475.99040578 C-93.39731354 458.606585 -93.40131136 441.22277598 -93.40888596 423.83895683 C-93.41745378 404.07694406 -93.41534047 384.31496475 -93.39904372 364.55295616 C-93.39022032 353.48785654 -93.38968077 342.42282936 -93.40098225 331.35773159 C-93.40769482 323.97214927 -93.40354917 316.58662519 -93.39046794 309.20105152 C-93.38331285 304.98942667 -93.38093029 300.77794605 -93.39168589 296.5663256 C-93.40136958 292.73547557 -93.39727036 288.90489786 -93.38214391 285.07406772 C-93.37769373 283.04612134 -93.38795759 281.01815898 -93.39880675 278.99023673 C-93.35672639 272.21244392 -92.75770733 267.19093943 -90 261 C-90 260.01 -90 259.02 -90 258 C-90.88969482 258.21148682 -91.77938965 258.42297363 -92.69604492 258.64086914 C-107.81863556 261.84905844 -123.1729796 261.49306614 -138.55102539 261.44604492 C-142.52911925 261.4345 -146.50633257 261.45490627 -150.4843111 261.48396206 C-153.5945122 261.50245207 -156.70450641 261.50200755 -159.81474876 261.49632454 C-161.28050164 261.49617325 -162.74627032 261.50205437 -164.21196938 261.51461601 C-179.34047928 261.62619677 -191.92141161 258.71819074 -203.06640625 248.015625 C-209.45239768 241.1363524 -211.55600113 234.99308777 -211.4375 225.75 C-211.42847656 224.90953125 -211.41945313 224.0690625 -211.41015625 223.203125 C-210.96301231 207.10594314 -201.68605535 197.10880938 -191.6875 185.28125 C-188.73407551 181.72845407 -185.99414975 178.02783032 -183.25 174.3125 C-178.41397075 167.77683756 -173.34825836 161.47358764 -168.14819336 155.22485352 C-164.46022803 150.7891967 -160.85131457 146.30537769 -157.3125 141.75 C-153.29992571 136.59139571 -149.15008637 131.5734947 -144.90673828 126.60351562 C-141.61643644 122.74583936 -138.43246481 118.8189618 -135.28125 114.84765625 C-126.38192559 103.7387393 -117.2241286 92.83961584 -108 82 C-102.0370132 74.98644145 -96.11637776 67.94795125 -90.30859375 60.8046875 C-87.30221155 57.15226378 -84.22153125 53.56540249 -81.14746094 49.9699707 C-78.0399288 46.30629152 -75.12219133 42.54090428 -72.25 38.6875 C-64.3485045 28.1699361 -54.94450908 18.71957326 -45.5546875 9.53125 C-44.16507548 8.1625869 -42.82846007 6.74059457 -41.5 5.3125 C-28.74067645 -6.48987429 -15.5409518 -5.17436971 0 0 Z " fill="#275782" transform="translate(807,984)"/>
<path d="M0 0 C5.88076405 4.9076127 10.45479094 10.31402848 15.07543945 16.43115234 C18.57744186 21.06594332 22.20541702 25.58544788 25.8828125 30.08203125 C29.22558429 34.17030296 32.55646902 38.25624396 35.7578125 42.45703125 C39.22237656 46.96182422 42.93983169 51.23960509 46.65258789 55.53955078 C49.71997415 59.09609311 52.73617125 62.68421713 55.6953125 66.33203125 C59.12739107 70.55995413 62.64078089 74.70734921 66.1953125 78.83203125 C70.49503963 83.82143892 74.70016659 88.87424281 78.8515625 93.98828125 C81.58833299 97.30889611 84.386342 100.57249907 87.1953125 103.83203125 C91.49503963 108.82143892 95.70016659 113.87424281 99.8515625 118.98828125 C102.58833299 122.30889611 105.386342 125.57249907 108.1953125 128.83203125 C111.74984411 132.95671329 115.26323393 137.10410837 118.6953125 141.33203125 C123.08244152 146.73279297 127.60754662 152.00670825 132.14453125 157.28125 C139.17815989 165.45921225 146.13757924 173.69402763 152.9296875 182.07421875 C154.54449261 184.03982635 156.17350954 185.97812561 157.8359375 187.90234375 C165.63497748 196.96555666 171.92050609 206.03432313 171.50390625 218.5078125 C169.76782437 231.58336591 163.56309382 241.70833167 153.59765625 250.140625 C146.22944414 255.32832556 138.15035395 256.94342961 129.28808594 256.99316406 C128.6124057 256.99812897 127.93672546 257.00309387 127.24057007 257.00820923 C125.01193195 257.02277054 122.78336534 257.02962776 120.5546875 257.03515625 C119.78614693 257.03798363 119.01760635 257.040811 118.22577667 257.04372406 C114.14725911 257.05870312 110.06877671 257.06793684 105.99023438 257.07226562 C101.82513952 257.07770493 97.66037911 257.10163899 93.49538803 257.13023758 C90.25379587 257.14910082 87.01227986 257.15408225 83.77063751 257.1556015 C82.2384079 257.15858274 80.70617809 257.1664527 79.1740036 257.17978668 C68.20213038 257.26834459 57.9395103 256.05730058 47.1953125 253.83203125 C47.40773968 254.33968175 47.62016685 254.84733225 47.83903122 255.3703661 C50.36231466 262.01584021 50.60973803 268.01934897 50.55175781 275.07495117 C50.55478613 276.90053794 50.55478613 276.90053794 50.55787563 278.76300526 C50.56032679 282.14408779 50.54922465 285.52462942 50.53231215 288.90563774 C50.5170694 292.61017919 50.519246 296.31471989 50.51899719 300.01928711 C50.51562981 307.40470666 50.49554659 314.78999654 50.47016615 322.17536962 C50.44951955 328.30999428 50.43576275 334.44460212 50.42648315 340.57925415 C50.42513699 341.46455891 50.42379083 342.34986367 50.42240387 343.26199585 C50.41966876 345.07109856 50.41693941 346.88020127 50.41421568 348.68930399 C50.37796039 371.83520232 50.30082498 394.98093491 50.21886444 418.12670898 C50.19463248 424.98811592 50.17151972 431.84952641 50.14849854 438.7109375 C49.78094659 547.83560803 49.38961943 656.962495 48.28505516 772.49947739 C48.2162027 779.61046893 48.15045234 786.72148301 48.08642578 793.83251953 C47.38837812 870.89577132 46.49089307 947.98723415 44.1328125 1025.01953125 C44.0927005 1026.32993378 44.0525885 1027.6403363 44.01126099 1028.990448 C43.79610391 1035.89060925 43.55985318 1042.78963637 43.30438232 1049.68841553 C43.19328534 1052.89045811 43.10526078 1056.0925841 43.02001953 1059.29541016 C42.95516329 1061.34539064 42.88991526 1063.39535877 42.82421875 1065.4453125 C42.80528061 1066.35226364 42.78634247 1067.25921478 42.76683044 1068.19364929 C42.50518929 1075.55097795 41.33447397 1082.62328904 37.1953125 1088.83203125 C36.5353125 1088.83203125 35.8753125 1088.83203125 35.1953125 1088.83203125 C33.72256342 1084.10964109 32.85959924 1079.80182991 32.47998047 1074.8425293 C32.37016179 1073.48386868 32.26030708 1072.12521097 32.15042114 1070.76655579 C32.06836615 1069.70289512 32.06836615 1069.70289512 31.98465347 1068.61774635 C30.60501682 1050.89483097 28.586457 1033.27456116 26.3203125 1015.64453125 C26.12672631 1014.12992649 25.93316403 1012.61531867 25.73962402 1011.10070801 C17.80948182 949.20698793 7.91906787 887.59231425 -1.92475891 825.98014832 C-2.49517878 822.40950097 -3.06450821 818.83868076 -3.63353646 815.26781142 C-7.95086718 788.17947124 -12.29038629 761.09480962 -17.12890625 734.09375 C-17.28182444 733.22763407 -17.43474262 732.36151814 -17.59229469 731.46915627 C-19.50931668 720.6575192 -21.92624934 710.09417574 -24.84016418 699.50642395 C-25.8046875 695.83203125 -25.8046875 695.83203125 -25.8046875 693.83203125 C-38.53968992 696.92734434 -44.83099262 706.03853253 -52.39453125 715.98242188 C-58.78000429 724.35782765 -65.35739689 732.59098022 -71.9921875 740.76953125 C-72.82907104 741.81620972 -72.82907104 741.81620972 -73.68286133 742.8840332 C-84.62657017 756.28000588 -84.62657017 756.28000588 -91.8046875 757.83203125 C-93.47827323 757.53538385 -95.14666137 757.20598076 -96.8046875 756.83203125 C-100.96685689 747.24210773 -100.1970874 737.09820395 -100.12748718 726.87533569 C-100.12466282 724.82905513 -100.12316657 722.78277238 -100.12288028 720.73648989 C-100.11826633 715.12661286 -100.09485619 709.51694856 -100.06834137 703.90713811 C-100.0430305 697.85274653 -100.03520139 691.79832925 -100.02523804 685.74389648 C-100.0055955 675.2585367 -99.97500791 664.77324935 -99.93668175 654.28794479 C-99.89654155 643.29375702 -99.86267255 632.29957922 -99.83713722 621.30534744 C-99.83554466 620.62117953 -99.83395209 619.93701162 -99.83231127 619.23211134 C-99.82425559 615.75741894 -99.81631156 612.2827263 -99.8084105 608.80803354 C-99.7522797 584.21133795 -99.68215119 559.61470028 -99.60375977 535.01806641 C-99.52764646 511.1261553 -99.45789287 487.23423942 -99.39672852 463.34228516 C-99.39483988 462.6055368 -99.39295125 461.86878844 -99.39100538 461.10971437 C-99.37204556 453.71083131 -99.3532148 446.31194791 -99.3344786 438.91306428 C-99.29630953 423.84134307 -99.25727911 408.76962413 -99.21772766 393.69790649 C-99.2159103 393.00496787 -99.21409294 392.31202924 -99.21222051 391.59809247 C-99.09080853 345.34269698 -98.94925622 299.08735956 -98.8046875 252.83203125 C-99.33620948 253.11488842 -99.86773145 253.39774558 -100.41536015 253.68917418 C-101.12209947 254.05584086 -101.82883878 254.42250754 -102.55699444 254.80028534 C-103.25351641 255.1656425 -103.95003839 255.53099967 -104.66766709 255.90742826 C-108.03590478 257.36472957 -111.37006727 257.39062872 -114.97387695 257.34960938 C-116.13418427 257.36012329 -116.13418427 257.36012329 -117.31793213 257.37084961 C-119.85165308 257.38832084 -122.38423824 257.37684289 -124.91796875 257.36328125 C-126.69622509 257.36598013 -128.47447999 257.36986583 -130.25273132 257.37487793 C-133.97226061 257.38075897 -137.69140439 257.37225833 -141.41088867 257.35351562 C-146.15173114 257.3307768 -150.89166509 257.34382564 -155.63247395 257.36780548 C-159.30365184 257.38234413 -162.97461878 257.37761991 -166.64580345 257.36729431 C-168.3923065 257.36464664 -170.13882939 257.36782692 -171.88530922 257.37721252 C-185.25827227 257.43329858 -196.50419251 256.29490357 -206.8046875 246.83203125 C-215.50358346 238.07258613 -218.6930776 229.31454137 -219.1796875 217.01953125 C-218.94255701 203.89266499 -213.48473358 194.67766436 -204.94140625 185.25 C-202.82777248 182.85815483 -200.84019643 180.40312744 -198.8671875 177.89453125 C-196.14336407 174.44719222 -193.32669328 171.14176675 -190.3671875 167.89453125 C-186.49907484 163.65016872 -182.85629204 159.26584779 -179.2421875 154.8046875 C-175.03346267 149.67193174 -170.68562223 144.65857231 -166.35302734 139.63037109 C-163.83175815 136.70200955 -161.31856507 133.76673776 -158.8046875 130.83203125 C-157.80472773 129.6653301 -156.80472769 128.49866346 -155.8046875 127.33203125 C-155.3096875 126.75453125 -154.8146875 126.17703125 -154.3046875 125.58203125 C-149.8046875 120.33203125 -149.8046875 120.33203125 -148.30395508 118.58129883 C-147.30623555 117.41721148 -146.30867636 116.25298669 -145.3112793 115.08862305 C-142.77770007 112.13133238 -140.24118613 109.17664756 -137.69921875 106.2265625 C-132.4083686 100.08076039 -127.18434845 93.89554583 -122.07421875 87.59765625 C-120.01716202 85.09095029 -117.92852917 82.61714886 -115.82299805 80.15136719 C-111.10554061 74.62631278 -106.53626648 69.01250434 -102.07519531 63.27856445 C-98.50785786 58.70073386 -94.85626187 54.19742234 -91.1796875 49.70703125 C-87.43972758 45.13729831 -83.79652556 40.53403557 -80.3046875 35.76953125 C-76.32779759 30.38903314 -72.02289921 25.36335751 -67.61035156 20.34106445 C-64.33531139 16.61222473 -61.15586795 12.83350682 -58.0546875 8.95703125 C-50.76359304 0.02644023 -45.33338761 -6.12849699 -33.9296875 -8.85546875 C-21.23580566 -10.12485693 -10.32301297 -7.88332984 0 0 Z " fill="#275782" transform="translate(1469.8046875,988.16796875)"/>
<path d="M0 0 C7.71968344 5.79285045 13.57312804 13.43718258 19.5078125 20.96875 C22.98066437 25.34807507 26.52610009 29.66822938 30.06933594 33.99072266 C32.73740466 37.26086323 35.34235547 40.55816197 37.85546875 43.94921875 C40.58986306 47.62490325 43.49182268 51.10934099 46.5 54.5625 C47.55241889 55.78096025 48.6044944 56.99971716 49.65625 58.21875 C50.1821875 58.8271875 50.708125 59.435625 51.25 60.0625 C57.0051247 66.73844465 62.69031107 73.47288269 68.25 80.3125 C72.20758188 85.17629025 76.27792446 89.93381231 80.37084961 94.68334961 C84.14584391 99.0730035 87.81978461 103.53614771 91.46875 108.03125 C94.20552049 111.35186486 97.0035295 114.61546782 99.8125 117.875 C103.36703161 121.99968204 106.88042143 126.14707712 110.3125 130.375 C114.69962902 135.77576172 119.22473412 141.049677 123.76171875 146.32421875 C130.00677321 153.58531003 136.2088115 160.88053429 142.25 168.3125 C145.70528752 172.55898036 149.24083156 176.7267494 152.8125 180.875 C153.83485326 182.0688239 154.85699141 183.26283205 155.87890625 184.45703125 C157.7065432 186.59235521 159.54757285 188.71207391 161.40234375 190.82421875 C169.40442583 200.15776207 174.35780334 209.29997456 173.8125 221.875 C172.10978959 233.56694481 166.15814194 244.58407367 156.8125 251.875 C145.98182649 258.6355478 135.55919479 259.18898341 123.1328125 259.17578125 C121.59552904 259.17967859 120.05824664 259.18401536 118.52096558 259.18876648 C115.301702 259.19620618 112.08254807 259.19595668 108.86328125 259.19067383 C105.59718993 259.18606196 102.33147256 259.19288517 99.06542969 259.21118164 C64.40233257 259.4042813 64.40233257 259.4042813 49.8125 255.875 C50.29992046 257.09511685 50.78734093 258.31523371 51.28953171 259.5723238 C53.89750096 268.36622919 53.21805911 277.6349487 53.17999268 286.71781921 C53.18201815 288.86065715 53.18535883 291.00349418 53.18989825 293.14632827 C53.198536 299.02365129 53.18849016 304.90081595 53.17535591 310.77812517 C53.16444989 317.12117547 53.17087226 323.46421129 53.17514038 329.80726624 C53.1801232 340.79676468 53.17413278 351.78621135 53.16025543 362.77570152 C53.14570945 374.30858417 53.13696808 385.84144602 53.13607025 397.37433815 C53.13597861 398.45139224 53.13597861 398.45139224 53.13588512 399.55020499 C53.13565559 402.46513585 53.13546842 405.3800667 53.13533698 408.29499756 C53.13412595 434.85447503 53.11843674 461.41392346 53.09375 487.97338867 C53.07047095 513.02384669 53.05628505 538.0742871 53.05273438 563.12475586 C53.05262286 563.89610372 53.05251134 564.66745158 53.05239645 565.46217362 C53.05194758 568.57206538 53.0515056 571.68195714 53.05106402 574.7918489 C53.05084364 576.34178797 53.05062235 577.89172703 53.05040014 579.4416661 C53.05017878 580.98789725 53.04996001 582.5341284 53.04974384 584.08035956 C53.04622414 608.73584714 53.03476198 633.39133142 53.0219375 658.04681569 C53.01822379 665.25796984 53.01495766 672.46912378 53.01268864 679.68027854 C53.00787142 694.84549294 53.00060024 710.01069542 52.98454097 725.17590275 C52.9779514 731.44603243 52.97287088 737.71615283 52.97208023 743.98628616 C52.97128948 749.73224547 52.96584585 755.47818135 52.95676073 761.22413335 C52.95426634 763.29676458 52.95341367 765.36939862 52.95441952 767.44203111 C52.9667502 798.94711277 52.9667502 798.94711277 49.9375 808.1875 C49.61007812 809.23550781 49.28265625 810.28351562 48.9453125 811.36328125 C47.8125 813.875 47.8125 813.875 44.8125 815.875 C39.35936355 809.33123626 35.76972771 802.19450242 32.11132812 794.57128906 C30.6249859 791.48573201 29.1173527 788.4109774 27.609375 785.3359375 C18.78742928 767.28241166 10.45753893 749.04333941 2.53515625 730.57421875 C-5.54158516 711.61015559 -5.54158516 711.61015559 -19.75 697.1875 C-23.33203614 696.7282646 -25.11396534 698.05090677 -28.1875 699.875 C-35.10364258 707.22820589 -39.77912195 716.16076104 -44.25 725.125 C-44.85584422 726.32037568 -45.46262645 727.51527638 -46.0703125 728.7097168 C-47.25397853 731.04461309 -48.43272708 733.3820104 -49.60595703 735.72216797 C-50.94193763 738.38546736 -52.2915613 741.04073344 -53.65234375 743.69140625 C-59.21886439 754.60814844 -64.07165359 765.75040555 -68.37109375 777.22265625 C-68.63818146 777.9349086 -68.90526917 778.64716095 -69.18045044 779.3809967 C-70.27121097 782.29747102 -71.35896645 785.21495063 -72.43481445 788.13696289 C-82.70821199 815.97585581 -82.70821199 815.97585581 -91.1875 820.875 C-93.25488281 820.71679688 -93.25488281 820.71679688 -95.1875 819.875 C-98.9626412 813.83051239 -98.57986428 806.2262812 -98.4375 799.375 C-98.43234375 798.41335938 -98.4271875 797.45171875 -98.421875 796.4609375 C-98.36199522 790.72744847 -98.07448532 785.03263375 -97.68469334 779.31262302 C-97.040201 768.96960201 -97.03402309 758.63887903 -97.02928162 748.27928162 C-97.02470582 746.14033657 -97.01970434 744.00139239 -97.01431805 741.86244923 C-97.00084336 736.02904961 -96.99334984 730.19565576 -96.98689139 724.36224473 C-96.97884009 718.05504763 -96.96515882 711.74786236 -96.95217896 705.44067383 C-96.93048289 694.52768229 -96.91227949 683.61469039 -96.89657402 672.70168877 C-96.88009849 661.26390568 -96.86160146 649.82612876 -96.84044075 638.38835335 C-96.83912314 637.67555333 -96.83780554 636.96275331 -96.836448 636.22835329 C-96.82974535 632.60798241 -96.82300693 628.98761159 -96.81625474 625.36724079 C-96.7685696 599.76509686 -96.72536237 574.16294716 -96.68481445 548.56079102 C-96.64542746 523.69815654 -96.60399602 498.83552683 -96.55981445 473.97290039 C-96.55845192 473.20569754 -96.55708939 472.43849469 -96.55568558 471.64804327 C-96.54199948 463.94304578 -96.52827201 456.23804836 -96.51451423 448.533051 C-96.48649231 432.83893404 -96.45874642 417.1448166 -96.4311676 401.45069885 C-96.4298994 400.72920599 -96.4286312 400.00771312 -96.42732458 399.26435683 C-96.34275643 351.13457897 -96.26464179 303.00479028 -96.1875 254.875 C-96.79025478 255.15785717 -97.39300955 255.44071433 -98.01402962 255.73214293 C-98.81283889 256.09880961 -99.61164816 256.46547629 -100.43466377 256.84325409 C-101.61723344 257.39128984 -101.61723344 257.39128984 -102.82369339 257.95039701 C-106.37150913 259.33812519 -109.60885621 259.43627941 -113.37841797 259.39257812 C-114.52431396 259.40309204 -114.52431396 259.40309204 -115.69335938 259.41381836 C-118.18918503 259.43125348 -120.68385268 259.41982594 -123.1796875 259.40625 C-124.93409439 259.40894965 -126.6884998 259.412836 -128.44290161 259.41784668 C-132.10937833 259.42372261 -135.77546357 259.41524276 -139.44189453 259.39648438 C-144.11433137 259.37372966 -148.78584716 259.38680773 -153.45825005 259.41077423 C-157.07881453 259.425313 -160.69916512 259.4205889 -164.31973648 259.41026306 C-166.04111976 259.40761626 -167.76252319 259.41079251 -169.4838829 259.42018127 C-182.77684664 259.47677436 -193.95385017 258.27646292 -204.1875 248.875 C-212.7627743 240.24003702 -216.16936248 231.63295943 -216.5 219.5 C-216.20661239 203.7854259 -209.05369501 194.64497955 -199.1796875 183.3359375 C-196.70402371 180.4935087 -194.32881493 177.58979652 -192 174.625 C-188.6563106 170.39012066 -185.09076736 166.40846112 -181.45703125 162.421875 C-179.20781197 159.89779416 -177.06399802 157.3154939 -174.9375 154.6875 C-169.72231485 148.24788007 -164.27418248 142.02044597 -158.83398438 135.77148438 C-154.75847475 131.07715479 -150.72566153 126.34601259 -146.68457031 121.62207031 C-145.15463241 119.83664376 -143.62079199 118.05463855 -142.0859375 116.2734375 C-137.58099578 111.0411132 -133.09836652 105.80154337 -128.75 100.4375 C-125.13322004 95.9789967 -121.39875803 91.63766245 -117.625 87.3125 C-113.41780347 82.48506171 -109.29820423 77.61818344 -105.3359375 72.5859375 C-103.08727343 69.74853229 -100.80154924 66.9440496 -98.51049805 64.14086914 C-93.45995053 57.95894088 -88.48954765 51.73035214 -83.64282227 45.38745117 C-77.74444925 37.66845904 -71.62880879 30.15901213 -65.32666016 22.76831055 C-62.36368703 19.28863505 -59.47911317 15.75766276 -56.625 12.1875 C-55.15556975 10.40857913 -53.67638363 8.63767134 -52.1875 6.875 C-51.03701172 5.50601563 -51.03701172 5.50601563 -49.86328125 4.109375 C-36.5316504 -10.57474014 -16.05622756 -10.49734815 0 0 Z " fill="#265782" transform="translate(1135.1875,635.125)"/>
<path d="M0 0 C6.91216055 5.87533647 12.18042794 12.85448465 17.5 20.125 C26.35455526 32.00306193 35.15086298 43.80250573 45.23046875 54.67578125 C47.21380462 56.81614544 49.14960189 58.98436908 51.0625 61.1875 C56.49721305 67.42405596 61.91148791 73.63511962 67.875 79.375 C72.08803441 83.52952004 75.67517717 88.01580569 79.27514648 92.69482422 C82.38606931 96.73379319 85.60591534 100.64180809 88.9375 104.5 C97.48353536 114.46037113 105.49296738 125.02230746 112.5 136.125 C113.098125 137.053125 113.69625 137.98125 114.3125 138.9375 C118.04230651 145.80819621 117.5245328 155.51660192 115.5 162.875 C112.41995254 170.76398949 106.06360808 176.63410396 98.5 180.125 C95.20182874 181.17543897 92.17341663 181.24602917 88.72167969 181.23852539 C87.5607782 181.23844986 86.39987671 181.23837433 85.20379639 181.23829651 C83.3317453 181.23055458 83.3317453 181.23055458 81.421875 181.22265625 C79.49930878 181.22053383 79.49930878 181.22053383 77.53790283 181.21836853 C74.1381636 181.21455901 70.7384674 181.20474214 67.33874512 181.19366455 C63.866461 181.18341674 60.3941699 181.1788637 56.921875 181.17382812 C50.11456571 181.16311841 43.30728492 181.14606084 36.5 181.125 C36.50075944 181.79272462 36.50151888 182.46044924 36.50230134 183.14840794 C36.54705582 222.72168533 36.58137229 262.29495947 36.60213066 301.86825705 C36.60463208 306.61969094 36.60722072 311.37112478 36.60986328 316.12255859 C36.6103879 317.06848499 36.61091252 318.01441139 36.61145304 318.98900223 C36.62015605 334.30604011 36.63592546 349.62306299 36.65430559 364.94009197 C36.67300751 380.65634213 36.68411735 396.37258442 36.68817699 412.08884525 C36.69092144 421.78688967 36.69959018 431.48489166 36.71583293 441.18292302 C36.72640341 447.83289099 36.72960048 454.48283703 36.72700275 461.1328128 C36.72572157 464.96968784 36.72768806 468.80648873 36.73841095 472.6433506 C36.74995672 476.8050882 36.7459741 480.96666799 36.74050903 485.12841797 C36.74633472 486.33854585 36.7521604 487.54867373 36.75816262 488.79547215 C36.72692705 497.58204554 36.28929819 505.0491911 30.5 512.125 C28.56406374 513.65287126 26.63216159 514.86508633 24.5 516.125 C20.90278644 514.6295292 18.86902779 512.59793692 16.3125 509.6875 C15.52230469 508.78902344 14.73210937 507.89054687 13.91796875 506.96484375 C11.61261459 504.25726301 9.36055432 501.51534457 7.125 498.75 C-3.49409811 484.46905199 -3.49409811 484.46905199 -18.5 476.125 C-21.12076657 477.03122813 -22.24966491 477.70026398 -23.67073059 480.11134338 C-26.04536903 486.45842265 -27.77705368 492.77982206 -29.19921875 499.40234375 C-29.43548477 500.4705687 -29.67175079 501.53879364 -29.91517639 502.63938904 C-30.6807709 506.11202501 -31.43404148 509.58721282 -32.1875 513.0625 C-32.72036178 515.48468456 -33.25389792 517.90672086 -33.78808594 520.32861328 C-36.28000291 531.66922263 -38.70881808 543.02020641 -41.00390625 554.40234375 C-53.06709002 614.17235378 -53.06709002 614.17235378 -72.5 637.125 C-72.83 637.125 -73.16 637.125 -73.5 637.125 C-73.5 486.645 -73.5 336.165 -73.5 181.125 C-94.29 181.125 -115.08 181.125 -136.5 181.125 C-146.41696986 176.71745784 -151.48667466 173.54581075 -156.5 164.125 C-159.18473496 156.61792121 -159.65484486 148.29327081 -156.9375 140.7421875 C-153.83983866 135.10242365 -149.20186542 130.48526254 -144.91699219 125.72753906 C-143.14185284 123.71995555 -141.49623989 121.63321038 -139.875 119.5 C-137.19441011 115.98457919 -134.40309801 112.57403877 -131.5625 109.1875 C-126.47500537 103.11928352 -121.52383665 96.95018466 -116.61328125 90.73828125 C-112.38399231 85.41092134 -108.04442253 80.19254891 -103.63745117 75.01245117 C-100.7203314 71.57986451 -97.8432836 68.1193396 -95 64.625 C-91.69375585 60.561691 -88.33170135 56.55212432 -84.9375 52.5625 C-81.13902074 48.09339537 -77.42666199 43.57127233 -73.78515625 38.97265625 C-70.17169102 34.46972265 -66.47162937 30.03820788 -62.78515625 25.5949707 C-59.56613711 21.69683178 -56.4333227 17.75995536 -53.41308594 13.70605469 C-45.82122629 3.52509868 -37.38853155 -4.87502252 -24.625 -7.6171875 C-15.1683904 -8.76449675 -7.48239905 -5.61179929 0 0 Z " fill="#EF5467" transform="translate(491.5,1355.875)"/>
<path d="M0 0 C6.22075016 4.89691283 10.57115548 11.54768648 15.203125 17.8828125 C17.7013616 21.28822538 20.36042592 24.45984515 23.19921875 27.5859375 C25.62835937 30.38075521 27.87502861 33.31110355 30.140625 36.23828125 C34.68037672 42.08707508 39.43810334 47.70532514 44.31445312 53.27514648 C48.23428347 57.75620403 52.03517736 62.31740889 55.78125 66.9453125 C57.8238853 69.44146997 59.90061573 71.90183017 61.99511719 74.35424805 C66.71286657 79.87837272 71.27970104 85.49333593 75.74291992 91.22485352 C79.34040345 95.83817208 83.00769726 100.3906288 86.703125 104.92578125 C87.25838867 105.60874268 87.81365234 106.2917041 88.38574219 106.99536133 C90.65733592 109.78800951 92.9330553 112.57617335 95.23046875 115.34765625 C100.8382904 122.18254726 105.76583919 129.45103327 110.70458984 136.77490234 C112.02379132 138.68762165 113.40046297 140.54842803 114.78515625 142.4140625 C118.03790051 147.17070254 118.49574096 150.91438968 118.015625 156.67578125 C114.83405767 166.60551367 106.62347007 174.51810236 97.58813477 179.24243164 C87.24476093 183.15261621 74.54514826 181.36009911 63.703125 181.11328125 C61.01634712 181.07411326 58.32949133 181.04570933 55.64257812 181.01757812 C49.09928486 180.94092075 42.55766368 180.82418534 36.015625 180.67578125 C36.02561775 182.43999672 36.02561775 182.43999672 36.03581238 184.23985291 C36.39019663 249.23454695 36.00828091 314.18283177 34.69014025 379.16512537 C34.64111708 381.58895138 34.59259583 384.0127869 34.54424667 386.43662643 C33.41319281 443.08845291 32.21611473 499.7639658 29.453125 556.36328125 C29.19869428 561.67954425 28.94801917 566.99597074 28.69921875 572.3125 C28.63927734 573.57505112 28.57933594 574.83760223 28.51757812 576.13841248 C28.20847256 582.81855395 27.94632579 589.49757701 27.75195312 596.18188477 C27.73118997 596.88476466 27.71042681 597.58764456 27.68903446 598.31182384 C27.59073579 601.67678244 27.49956639 605.04158164 27.41880798 608.4070282 C27.10745027 619.7072984 26.46558118 630.55225929 21.015625 640.67578125 C20.355625 640.34578125 19.695625 640.01578125 19.015625 639.67578125 C18.45284537 637.3521894 18.01817115 635.09786035 17.640625 632.7421875 C17.38104616 631.23257783 17.12092802 629.72306083 16.86035156 628.21362305 C16.72375122 627.40565277 16.58715088 626.5976825 16.44641113 625.76522827 C9.10356203 582.69283284 -2.32897934 540.21791867 -14.984375 498.42578125 C-15.21607391 497.65494202 -15.44777283 496.88410278 -15.68649292 496.08990479 C-16.34032595 493.92328791 -17.0040851 491.76000675 -17.671875 489.59765625 C-18.23455078 487.76605957 -18.23455078 487.76605957 -18.80859375 485.89746094 C-19.9143749 482.86758386 -21.22063416 480.36586724 -22.984375 477.67578125 C-30.43175893 477.67578125 -34.82971812 481.59637484 -39.984375 486.67578125 C-42.92363032 490.06306202 -45.61783449 493.6372083 -48.32421875 497.2109375 C-54.49330261 505.34078963 -61.7031382 512.54946438 -68.984375 519.67578125 C-70.859375 519.11328125 -70.859375 519.11328125 -72.984375 517.67578125 C-75.66853456 511.07598316 -75.24096083 504.33377316 -75.18692017 497.30592346 C-75.18365912 495.93869974 -75.18128695 494.57147366 -75.1797241 493.20424694 C-75.17288046 489.4574715 -75.153464 485.71085138 -75.13196325 481.96413529 C-75.11096891 477.91993473 -75.10167884 473.87570516 -75.09095764 469.83146667 C-75.070794 462.8279473 -75.04323688 455.82448843 -75.01063919 448.82101631 C-74.96351931 438.6952118 -74.92757914 428.56939181 -74.89435594 418.44353329 C-74.84014871 402.01448584 -74.77691668 385.58548603 -74.70800781 369.15649414 C-74.64109381 353.19850172 -74.57843102 337.24050194 -74.52148438 321.2824707 C-74.51797193 320.29860123 -74.51445949 319.31473175 -74.51084061 318.30104805 C-74.49324571 313.36519922 -74.47573437 308.4293501 -74.45826459 303.49350083 C-74.31325728 262.55420759 -74.15360297 221.61498108 -73.984375 180.67578125 C-74.71385345 180.6846637 -75.44333191 180.69354614 -76.19491577 180.70269775 C-83.10829719 180.78322895 -90.02160745 180.84393998 -96.93533897 180.88302994 C-100.48883639 180.90380314 -104.04194254 180.93192898 -107.59521484 180.97753906 C-111.69111643 181.02977846 -115.78661442 181.04881109 -119.8828125 181.06640625 C-121.1436264 181.08705139 -122.40444031 181.10769653 -123.70346069 181.12896729 C-131.91187372 181.13103307 -139.57555048 180.4665844 -146.02841187 174.91827393 C-152.46364413 168.34524497 -158.0611529 158.22203409 -158.234375 148.92578125 C-158.26015625 148.1059375 -158.2859375 147.28609375 -158.3125 146.44140625 C-157.54682192 139.98783389 -154.13274337 135.13801975 -150.109375 130.23828125 C-149.63032715 129.64265381 -149.1512793 129.04702637 -148.65771484 128.43334961 C-147.63344383 127.16232389 -146.60551555 125.89423799 -145.57421875 124.62890625 C-143.98224328 122.67316243 -142.40393184 120.70706708 -140.828125 118.73828125 C-133.87728975 110.08310374 -126.70188003 101.64820825 -119.38671875 93.29980469 C-118.03910334 91.73916093 -116.72769268 90.15425414 -115.421875 88.55859375 C-113.06507001 85.77121862 -110.56806181 83.25165055 -107.984375 80.67578125 C-105.84098721 78.31360841 -103.75426953 75.90425135 -101.671875 73.48828125 C-101.09501953 72.82119141 -100.51816406 72.15410156 -99.92382812 71.46679688 C-96.22176654 67.16642231 -92.64616285 62.78727067 -89.13671875 58.328125 C-85.80473557 54.2221058 -82.31058575 50.259446 -78.83422852 46.27563477 C-74.90411675 41.76269397 -71.08755641 37.17289476 -67.32421875 32.51953125 C-63.91412473 28.37504302 -60.40262994 24.31888021 -56.88061523 20.26928711 C-54.14448465 17.17332426 -54.14448465 17.17332426 -51.984375 13.67578125 C-51.324375 13.67578125 -50.664375 13.67578125 -49.984375 13.67578125 C-49.60925781 12.83660156 -49.60925781 12.83660156 -49.2265625 11.98046875 C-44.30298779 2.84553453 -36.52327727 -2.71382418 -26.984375 -6.32421875 C-16.85479624 -8.9298486 -8.41773948 -5.61734977 0 0 Z " fill="#EF5366" transform="translate(1781.984375,1356.32421875)"/>
<path d="M0 0 C0.66 0.33 1.32 0.66 2 1 C-5.92 8.92 -13.84 16.84 -22 25 C-22.66 24.67 -23.32 24.34 -24 24 C-16 16 -8 8 0 0 Z " fill="#6487A5" transform="translate(770,985)"/>
<path d="M0 0 C0.66 0.66 1.32 1.32 2 2 C-2.29 6.29 -6.58 10.58 -11 15 C-11.66 14.67 -12.32 14.34 -13 14 C-12.22914063 13.24074219 -11.45828125 12.48148437 -10.6640625 11.69921875 C-9.65090904 10.69544634 -8.63789552 9.69153268 -7.625 8.6875 C-7.11710937 8.18798828 -6.60921875 7.68847656 -6.0859375 7.17382812 C-3.77145867 4.87457613 -1.81652517 2.72478775 0 0 Z " fill="#587E9E" transform="translate(306,346)"/>
<path d="M0 0 C0.33 0.99 0.66 1.98 1 3 C-1.64 5.64 -4.28 8.28 -7 11 C-7.66 10.67 -8.32 10.34 -9 10 C-6.03 6.7 -3.06 3.4 0 0 Z " fill="#5F84A3" transform="translate(285,369)"/>
</svg>
